<svg version="1" xmlns="http://www.w3.org/2000/svg" width="1148" height="1148" viewBox="0 0 861.000000 861.000000"><path d="M338 139.6c-132.4 3.6-196.5 7.9-229.5 15.6-20.3 4.7-35.2 12.7-50.3 27.3-12.4 11.8-21.9 26.6-27 42-7.3 21.8-12.9 62.3-16.9 122.4-2.5 36.4-2.5 136.8 0 173.2 4 60.1 9.6 100.6 16.9 122.4 5.1 15.4 14.6 30.2 27 42 11.4 11 21.7 17.6 36.3 23.3 22.5 8.8 79.6 14.2 194.5 18.4 46.6 1.7 240.4 1.7 287 0 114.9-4.2 172-9.6 194.5-18.4 14.6-5.7 24.9-12.3 36.3-23.3 12.4-11.8 21.9-26.6 27-42 7.3-21.8 12.9-62.3 16.9-122.4 2.5-36.4 2.5-136.8 0-173.2-4-60.1-9.6-100.6-16.9-122.4-5.1-15.4-14.6-30.2-27-42-11.4-11-21.7-17.6-36.3-23.3-22.3-8.7-79.9-14.2-191-18.3-26.9-1-215.5-2-241.5-1.3zM444.7 212c3.4 1.7 7.5 4.6 9.1 6.5 1.5 1.9 6.5 10.6 11.1 19.2 10.4 19.8 15.1 26.4 27 38.4 17.6 17.5 28.6 20.2 71.8 17.5l14.2-.9 5.6 2.7c10.1 5 17.6 17.9 15.9 27.3-1.3 7.2-4.5 14.8-9.8 23.8-19.8 33.3-24.8 49.6-21.2 70.1 1.9 11.4 3.3 14.5 15.3 35.7 9.7 17.1 12.3 23.7 12.3 31 0 2.1.4 3.6.8 3.3.5-.3 3.1-5 5.8-10.5l4.8-10 6.6-1.5c3.6-.8 11-2.2 16.5-3.1 5.4-.9 10.1-1.8 10.3-2 .3-.2.4-4.9.3-10.3-.2-11.6.2-12.3 8.5-13 4.6-.4 6.4 0 11.9 2.7 14 6.9 16.1 13.9 18.6 60.3 1 18.2 1 23.3-.1 25.7-3.9 9.6-18.4 13.5-31.1 8.6-1.1-.4-3.8 2.1-9.5 8.7-29.8 34.9-68.2 63-107.4 78.7-34.8 13.8-63.6 19.2-104 19.4-19.6.1-25.8-.3-37.5-2.1-31.9-5-57.4-13.1-85.7-27.3-32.5-16.3-58.8-36.9-82.9-64.9l-10.3-12h-4.8c-10.5 0-21.9-6.3-24-13.3-2.7-8.9-.8-70.9 2.3-76.9 1.9-3.5 8.9-6.1 17.9-6.6 13.3-.7 18.4 2.7 19.2 12.8l.3 3.5 13.1.5c14.8.6 14.9.6 20.2 8.9l3.5 5.4 2.9-3.4c10.4-12.3 24.1-36.3 29.2-51.1 3-8.7 3.2-13 1.2-24.3-2.4-13.1-4.8-18.5-17.7-40-4.3-7.2-9.5-16.7-11.6-21-3.4-7.2-3.8-8.8-3.8-16.1 0-7.2.3-8.6 3-13 6.8-10.8 15-12.3 47.5-8.3 11.3 1.3 30.9.6 39.8-1.6 9.8-2.3 17-6.4 24.3-13.5 7.4-7.3 17.3-21.9 24.4-36.1 9.3-18.5 16.4-27.8 23.6-30.9 4.4-1.9 15.7-.4 22.6 3z"/><path d="M450 306.7c0 19.5.2 22.3 1.8 24.2 1.6 2.1 1.7 1.7 1.7-12.1.1-11.8.4-15.4 2.2-20.5l2-6.1-3.8-3.8-3.9-3.8v22.1zM389.5 306.6c-7.7 4.8-23.1 12.1-31 14.7-13.4 4.3-19.1 5.1-37.2 5.2-9.5 0-17.3.1-17.3.3 0 .2 2.7 5.1 5.9 11 9.8 17.8 14.7 31.6 17.6 49.7 2.1 12.5 1.9 17.9-1.1 32.4-2.9 14.3-4.8 19-15.6 38.6-4.3 7.7-7.8 14.2-7.8 14.6 0 .3 6.2.9 13.8 1.2 27.4 1.3 45.5 5.6 64.5 15.4 9.9 5.1 14.6 8.2 19.3 12.8 3.4 3.3 6.6 6.9 7.2 8 .8 1.6 1.3 1.7 2.5.7 2.1-1.8 3.1-13.1 2.2-25.3l-.7-10.1-7.2-3.3c-3.9-1.7-9.5-4-12.3-4.9-5.2-1.7-6.1-2.8-4.5-5.3 1-1.6 10.3-5.7 17.9-7.8l6.1-1.7.7-8.4c.4-4.6.4-12.6 0-17.8l-.7-9.3-3.9-2.2c-11.7-6.6-22.9-22.1-22.9-31.7V379h4.3c2.3.1 8.2.9 13.2 2 4.9 1 9.2 1.6 9.5 1.3.3-.2.5-4.6.5-9.6v-9.2l-4.3-6.3c-6.4-9.3-8.3-14.4-9-23.4l-.5-8 6.9.3 6.9.4-.2-2.7c-.1-1.9-2.6-5.1-8.8-11.2-4.8-4.7-9-8.6-9.3-8.6-.4 0-2.5 1.2-4.7 2.6zM484.6 317.7c-.3 1.6-.8 4.8-1.2 7.2-1 6.7-3.1 10.9-8.3 16.5-5.6 5.9-8.1 10.3-8.1 14.2 0 2 11 28.6 12.5 30.2.1.2 1.7-2.2 3.4-5.3 1.8-3.1 6.6-9.1 10.7-13.5 9.7-10.2 26-23.4 27.9-22.7.7.3 1.7 2.3 2.1 4.4 1.1 6-1.1 26.9-3.6 34.3-4.7 13.8-14.3 25.6-25.3 31.1-7.7 3.9-11.4 7.3-12.3 11.3-.3 1.7-1.9 6.4-3.5 10.4s-2.9 7.5-2.9 7.8c0 1.3 3.3-2.2 10.1-10.7 4.8-6 9.1-10.2 13.7-13.3 7.1-4.7 24.7-13.6 26.9-13.6 2.1 0 1.6 13.3-.8 23.1-4.5 18.1-12.8 30.4-24.7 36.7-3.1 1.7-12.2 5.6-20.1 8.7-17.7 7-20.5 8.7-26.1 16.1-4.3 5.7-4.5 6.2-4.9 13.8-.4 9.2-1.4 9.2 9.8.1 9.5-7.6 20.6-14.1 31.6-18.4 17.1-6.6 22.1-7.4 46.8-7.2l21.7.1-2.9-5.7c-6.1-12.3-13.1-28.6-16-37.6-5.4-16.8-7.8-36.2-6.1-48.7 1.6-11.8 4.9-21.3 13.5-39l7.5-15.5-11.1-.7c-18.2-1.2-32.1-4.7-48.5-12.3-5.3-2.5-10-4.5-10.4-4.5-.5 0-1.1 1.2-1.4 2.7z"/><path d="M450 388.3v9.4l7.8 6.3c7.1 5.8 7.7 6.1 8 4 .8-4.9-.8-8.9-4.8-12-2.9-2.3-4.4-4.5-5.4-8-3.6-12-5.6-11.8-5.6.3zM450 442.3c0 11 .2 12.6 1.9 14.1 1.1 1 2.5 1.5 3.1 1.1 1.7-1.1 5.6-9.6 7-15.3 1.4-6 .6-7.6-4.5-9.7-8.1-3.3-7.5-4.1-7.5 9.8zM281.7 511.4c4.2 7.2 20.3 21 38.3 32.9 13.1 8.7 37.2 20.5 51.1 25.1 10.8 3.6 30.7 8.1 31.6 7.2.3-.3-.4-1.7-1.5-3.3-1.1-1.5-5.9-9.8-10.7-18.3-14.5-25.6-20-32.7-29.3-37.4-9-4.6-15.5-5.7-34.2-6.2-43.1-1-45.9-1-45.3 0zM521.4 514.2c-10.1.8-20.7 4.4-27.6 9.3-7.7 5.6-16.4 14.2-21 20.8-4.1 6-16.4 30.5-15.6 31.2.6.6 19.8-4.2 29.7-7.5 23.5-7.9 49.9-21.1 65.2-32.7 11.8-8.8 22.6-18.9 21.5-20-1-1.1-42.2-2-52.2-1.1z"/></svg>